<svg fill="none" height="500" viewBox="0 0 500 500" width="500" xmlns="http://www.w3.org/2000/svg" xmlns:xlink="http://www.w3.org/1999/xlink"><linearGradient id="a" gradientUnits="userSpaceOnUse" x1="249" x2="249" y1="189.266" y2="429.472"><stop offset="0" stop-color="#139d84"/><stop offset="1" stop-color="#07836c"/></linearGradient><ellipse cx="250.19" cy="428.709" fill="#f2c47f" rx="177" ry="10" transform="matrix(.99970767 -.02417778 .02417778 .99970767 -10.292097 6.174362)"/><g stroke-width="2"><path d="m176.5 176.932c-8 16.5-31.5 41-6 74l34-40.5c-9-3-11 2-28-33.5z" fill="#024e40" stroke="#030303"/><path d="m329.578 250.254-30.298-43.339c7.419-1.765 9.877 1.221 20.976-15.127l23.322 31c-1.106 8.639-5.109 17.848-14 27.466z" fill="#024e40" stroke="#030303"/><path d="m356.008 322.613c2.389 9.686 2.855 18.826 1.714 25.754-.572 3.466-1.537 6.33-2.824 8.426-1.284 2.091-2.846 3.36-4.617 3.797-1.77.436-3.743.04-5.852-1.214-2.114-1.258-4.301-3.343-6.419-6.146-4.233-5.603-8.071-13.91-10.46-23.597-2.39-9.686-2.856-18.826-1.714-25.754.571-3.466 1.536-6.33 2.823-8.426 1.284-2.091 2.846-3.36 4.617-3.797s3.744-.04 5.853 1.214c2.114 1.258 4.3 3.343 6.418 6.146 4.233 5.603 8.071 13.91 10.461 23.597z" fill="#139d84" stroke="#000"/><path d="m169.554 317.762c-5.144 9.682-11.317 17.592-17.102 22.561-2.895 2.487-5.653 4.202-8.099 5.057-2.445.855-4.479.82-6.059-.019-1.58-.84-2.747-2.506-3.407-5.01-.66-2.506-.782-5.751-.342-9.542.881-7.576 3.981-17.118 9.125-26.8 5.145-9.683 11.317-17.592 17.103-22.562 2.895-2.486 5.652-4.202 8.099-5.057 2.445-.854 4.478-.82 6.058.02s2.747 2.505 3.408 5.01c.66 2.506.782 5.751.341 9.542-.88 7.576-3.98 17.117-9.125 26.8z" fill="#139d84" stroke="#000"/><path d="m249 190.433h.032l.031-.002c32.535-2.052 54.246 15.217 70.587 41.529 11.178 17.999 22.35 39.686 22.35 62.973 0 28.001-9.801 54.005-25.745 73.364-3.701 4.494-5.276 10.362-5.853 16.534-.576 6.162-.167 12.758.208 18.79l.002.033c.379 6.1.713 11.555.051 15.615-.329 2.019-.891 3.587-1.733 4.692-.816 1.069-1.94 1.764-3.562 1.981l-.016.002-.016.002c-11.906 1.985-34.325 2.487-47.336 2.487-.804 0-1.387-.215-1.841-.554-.468-.349-.863-.878-1.196-1.6-.683-1.478-.999-3.51-1.284-5.724-.029-.226-.058-.455-.087-.685-.243-1.931-.498-3.954-1.046-5.531-.311-.896-.747-1.745-1.409-2.377-.69-.659-1.571-1.029-2.637-1.029-.922 0-1.605.522-2.083 1.139-.468.604-.831 1.405-1.139 2.255-.404 1.117-.774 2.507-1.153 3.931-.192.718-.385 1.445-.587 2.15-.622 2.179-1.338 4.235-2.339 5.736-.979 1.469-2.144 2.289-3.699 2.289-2.157 0-4.268.042-6.546.087-8.839.175-20.177.401-46.378-1.584-.529-.04-.918-.195-1.221-.422-.308-.231-.584-.581-.814-1.092-.475-1.055-.695-2.65-.693-4.791.003-3.181.485-7.231 1.034-11.851.189-1.588.385-3.243.573-4.954.73-6.631 1.313-13.999.694-21.126-.62-7.128-2.449-14.087-6.603-19.852-13.449-18.662-21.546-42.464-21.546-67.915 0-22.876 11.999-42.004 23.339-59.455 17.011-26.181 38.92-45.045 69.661-45.045z" fill="url(#a)" stroke="#000"/><path d="m290 364.5c13.6-11.2 14.333-30 13-37.5l-13 6.5c4 6.4 1.833 23.5 0 31z" fill="#fff" stroke="#000"/><path d="m210 376.933c-13.6-11.2-14.367-23-13.033-30.5l13.033 2.5c-1 7.5-1.833 20.5 0 28z" fill="#fff" stroke="#000"/><path d="m293.723 281.467c-3.982 10.063-10.273 18.061-17.175 22.876-6.91 4.82-14.321 6.388-20.677 3.872-6.355-2.515-10.686-8.729-12.426-16.973-1.738-8.234-.852-18.371 3.131-28.434 3.982-10.062 10.273-18.061 17.175-22.876 6.91-4.82 14.32-6.388 20.676-3.872 6.356 2.515 10.687 8.73 12.427 16.973 1.738 8.234.851 18.371-3.131 28.434z" fill="#fff" stroke="#000"/><path d="m187.518 277.303c2.049 10.627 6.749 19.652 12.64 25.662 5.897 6.017 12.889 8.931 19.601 7.636 6.712-1.294 12.119-6.598 15.356-14.377 3.233-7.769 4.24-17.895 2.191-28.522-2.049-10.626-6.749-19.651-12.64-25.662-5.897-6.016-12.889-8.93-19.601-7.636-6.711 1.295-12.119 6.599-15.356 14.377-3.233 7.77-4.24 17.896-2.191 28.522z" fill="#fff" stroke="#000"/></g><ellipse cx="264.351" cy="282.137" fill="#161212" rx="18.3726" ry="27.9018" transform="matrix(.92983173 .36798499 -.36798499 .92983173 122.371234 -77.480135)"/><ellipse cx="18.3726" cy="27.9018" fill="#161212" rx="18.3726" ry="27.9018" transform="matrix(-.98191 .189348 .189348 .98191 231.081 250.433)"/><path d="m184.5 341.433c33.5 16 74.8 8.6 122-17" stroke="#000" stroke-width="2"/><path d="m355.407 331.834c1.672 22.23.335 7.852-1.165 1.852 0 0-2-3-4.067-12-3.749-21.21-7.676-21.182-5.596-19.622 4 3 7.078 8.56 10.828 29.77z" fill="#0d7b67"/><path d="m300 270.932c-3.438 22.026 2.475 1.684 2.382-4.499 0 0-.04 2.381 0-6.854-1.382-18.147-11.052-23.139-9.382-21.146 3.211 3.832 8.184 10.993 7 32.499z" fill="#0d7b67"/><path d="m304 258.933c-1 17.5 0 12.5.5 6.5 0 0 0-8.062 0-10.5-1.5-13.5-9.645-19.078-7.975-17.085 3.211 3.833 3.593 3.023 7.475 21.085z" fill="#0d7b67"/><path d="m208.5 391.433c21 7 46.5 11 79-3.5" stroke="#171618" stroke-width="2"/><path d="m208.5 391.433c21 7 46.5 11 79-3.5" stroke="#171618" stroke-width="2"/><path d="m222.5 399.933c13.667 4 28 6 53.5-2.5" stroke="#171618" stroke-width="2"/><path d="m248 311.806c0-.759-3.134-1.373-7-1.373s-7 .614-7 1.373c0 .758 3.134.616 7 .616s7 .142 7-.616z" fill="#0c6454"/><path d="m246 307.806c0-.759-2.462-1.373-5.5-1.373s-5.5.614-5.5 1.373c0 .758 2.462.616 5.5.616s5.5.142 5.5-.616z" fill="#0c6454"/><path d="m244 303.806c0-.759-1.567-1.373-3.5-1.373s-3.5.614-3.5 1.373c0 .758 1.567.616 3.5.616s3.5.142 3.5-.616z" fill="#0c6454"/><path d="m279 201.433c0 4.97-11.484 5-27.5 5s-30.5-.03-30.5-5c0-4.971 12.484-10 28.5-10s29.5 5.029 29.5 10z" fill="#0c8d76"/><path d="m178.5 226.5c-4.068-2.857-1.671-4.014 2.673-10.199 4.345-6.186 8.297-11.763 12.365-8.906s-3.175 5.419-7.519 11.605-3.451 10.357-7.519 7.5z" fill="#116959"/><path d="m319.952 222.282c3.99-2.964 4.335-.326 8.843 5.742 4.508 6.067 8.561 11.572 4.571 14.536s-4.148-4.716-8.656-10.784c-4.508-6.067-8.748-6.53-4.758-9.494z" fill="#116959"/><path d="m175.946 213.479c-4.121-2.778-.769-3.267 2.036-7.428 2.805-4.16 3.95-7.972 8.072-5.194 4.121 2.779-1.894 3.735-4.699 7.895-2.805 4.161-1.287 7.505-5.409 4.727z" fill="#116959"/><path d="m173.5 200c-1.5-2 1.293-2.025 3-4s1.919-4 4.649-1.118c2.351 2.483-1.023 1.974-2.731 3.949-1.707 1.975-1.157 4.419-4.918 1.169z" fill="#116959"/><path d="m307.5 407.933c.4-6-1.167-17.5-2-22.5-.5 5.5-1.5 17.2-1.5 20 0 3.5-2 11-5.5 13s0 3.5.5 4.5 5.5-.5 7-2 1-5.5 1.5-13z" fill="#0b7663"/></svg>